<?xml version="1.0" encoding="UTF-8" standalone="no"?>
<!-- Created with Inkscape (http://www.inkscape.org/) -->

<svg
   width="256"
   height="256"
   viewBox="0 0 67.733331 67.733333"
   version="1.1"
   id="svg5"
   inkscape:version="1.1.2 (0a00cf5339, 2022-02-04)"
   sodipodi:docname="printer.svg"
   xmlns:inkscape="http://www.inkscape.org/namespaces/inkscape"
   xmlns:sodipodi="http://sodipodi.sourceforge.net/DTD/sodipodi-0.dtd"
   xmlns="http://www.w3.org/2000/svg"
   xmlns:svg="http://www.w3.org/2000/svg">
  <sodipodi:namedview
     id="namedview7"
     pagecolor="#ffffff"
     bordercolor="#666666"
     borderopacity="1.0"
     inkscape:pageshadow="2"
     inkscape:pageopacity="0.0"
     inkscape:pagecheckerboard="0"
     inkscape:document-units="px"
     showgrid="false"
     units="px"
     width="1200px"
     inkscape:zoom="1.3672573"
     inkscape:cx="106.41743"
     inkscape:cy="153.95786"
     inkscape:window-width="1366"
     inkscape:window-height="670"
     inkscape:window-x="0"
     inkscape:window-y="28"
     inkscape:window-maximized="1"
     inkscape:current-layer="layer1" />
  <defs
     id="defs2">
    <filter
       inkscape:collect="always"
       style="color-interpolation-filters:sRGB"
       id="filter1355"
       x="-0.066944947"
       y="-0.066944438"
       width="1.1338894"
       height="1.1338889">
      <feGaussianBlur
         inkscape:collect="always"
         stdDeviation="1.4287498"
         id="feGaussianBlur1357" />
    </filter>
  </defs>
  <g
     inkscape:label="Layer 1"
     inkscape:groupmode="layer"
     id="layer1">
    <path
       style="fill:#000000;stroke-width:0.79374998;stroke:#000000;stroke-opacity:1;stroke-miterlimit:4;stroke-dasharray:none;filter:url(#filter1355)"
       d="m 17.798558,62.152612 c 0.0029,-0.158979 0.348159,-3.172066 0.767174,-6.695748 0.419015,-3.523683 0.724691,-6.441057 0.67928,-6.483056 -0.04541,-0.042 -2.664076,-0.07637 -5.819256,-0.07637 -5.5963014,0 -5.7559964,-0.0091 -6.5257384,-0.371639 -0.560655,-0.264067 -0.907628,-0.582356 -1.198702,-1.099607 l -0.409649,-0.727967 0.0029,-10.668997 0.0029,-10.668999 0.404296,-0.660224 c 0.246711,-0.402885 0.715446,-0.821361 1.202569,-1.073628 l 0.798275,-0.413402 h 4.9556964 4.955696 l 0.0042,-3.633815 c 0.0037,-3.211835 0.04359,-3.714061 0.343432,-4.324848 0.374599,-0.763068 1.099109,-1.208461 1.96578,-1.208461 h 0.54465 V 9.6687609 5.2916666 H 33.85826 47.244385 l -0.01686,0.3716402 c -0.0093,0.2044014 -0.0055,2.1740949 0.0084,4.3770942 l 0.02526,4.005455 h 0.544651 c 0.771305,0 1.544807,0.415945 1.876424,1.009029 0.234482,0.419367 0.284213,1.14803 0.285255,4.179546 7.08e-4,2.019396 0.05508,3.740687 0.120863,3.82509 0.06866,0.08809 2.211517,0.153459 5.030932,0.153459 4.905375,0 4.9123,5.15e-4 5.714999,0.412933 0.563272,0.289414 0.923871,0.633386 1.205508,1.14992 l 0.401836,0.736985 v 10.592711 10.592705 l -0.409649,0.727967 c -0.291074,0.517251 -0.638048,0.83554 -1.198702,1.099606 -0.769743,0.362545 -0.929438,0.37164 -6.52574,0.37164 -3.15518,0 -5.774061,0.03456 -5.819735,0.07681 -0.04568,0.04224 0.01965,0.952761 0.14518,2.023374 0.462681,3.94624 1.307085,11.288205 1.307085,11.364914 0,0.04352 -7.233047,0.07912 -16.073436,0.07912 -15.191002,0 -16.073143,-0.01587 -16.068105,-0.289053 z M 47.975567,60.65777 c 0,-0.25442 -0.447507,-4.145346 -1.884512,-16.385178 -0.154651,-1.317258 -0.319931,-2.636581 -0.367287,-2.931828 l -0.08611,-0.536814 h -11.770995 -11.771 l -0.09631,0.536814 c -0.05297,0.295247 -0.342725,2.692326 -0.643904,5.326842 -0.301179,2.634516 -0.783869,6.753861 -1.072645,9.154102 -0.288777,2.400239 -0.525047,4.537171 -0.525047,4.748734 v 0.384663 h 14.108904 c 13.467692,0 14.108904,-0.01351 14.108904,-0.297335 z M 24.579789,58.725264 v -0.743281 h 9.286874 9.286873 v 0.743281 0.74328 h -9.286873 -9.286874 z m 0,-4.624855 v -0.74328 h 9.286874 9.286873 v 0.74328 0.74328 h -9.286873 -9.286874 z m 0.03438,-4.583562 0.05492,-0.701987 h 9.197577 9.197576 l 0.05492,0.701987 0.05492,0.701987 h -9.307416 -9.307412 z m 0.0023,-4.551234 0.05261,-0.710951 9.197577,0.0073 9.197577,0.0073 0.05261,0.703599 0.05261,0.7036 h -9.302794 -9.302797 l 0.05261,-0.710954 z m -7.758217,-2.395634 c 0.05224,-5.43561 0.05803,-5.464455 1.195635,-5.96372 0.530532,-0.232833 2.290263,-0.26199 15.812748,-0.26199 13.522485,0 15.282215,0.02915 15.812744,0.26199 1.137608,0.499265 1.143391,0.52811 1.195635,5.96372 l 0.04732,4.923494 2.678905,0.05206 c 1.473399,0.02863 3.495276,0.0033 4.493061,-0.05615 2.858645,-0.170519 2.561392,1.141234 2.561392,-11.303213 0,-5.803135 -0.04992,-10.671474 -0.110939,-10.818533 -0.321744,-0.775444 0.558355,-0.75068 -26.67812,-0.75068 -27.2364764,0 -26.3563764,-0.02477 -26.6781204,0.75068 -0.06102,0.147059 -0.110939,5.01902 -0.110939,10.826583 0,10.38647 0.0059,10.563907 0.360497,10.846643 0.495171,0.394816 1.639857,0.487288 5.8009864,0.468629 l 3.571874,-0.01602 0.04732,-4.923494 z M 55.193463,30.823941 c -1.237631,-0.498373 -1.69217,-1.805998 -0.976702,-2.809792 0.636877,-0.893531 1.67917,-1.154548 2.686517,-0.672774 0.753919,0.360571 1.073534,0.880959 1.073534,1.747897 0,0.846367 -0.490918,1.505905 -1.344237,1.805958 -0.592705,0.208412 -0.765814,0.199837 -1.439112,-0.07129 z M 45.475255,14.954313 V 6.7782304 H 33.866663 22.25807 v 8.1760826 8.176084 h 11.608593 11.608592 z"
       id="path893" />
    <path
       style="fill:#ffffff;stroke-width:0.171753;fill-opacity:1"
       d="m 17.798558,62.152612 c 0.0029,-0.158979 0.348159,-3.172066 0.767174,-6.695748 0.419015,-3.523683 0.724691,-6.441057 0.67928,-6.483056 -0.04541,-0.042 -2.664076,-0.07637 -5.819256,-0.07637 -5.5963014,0 -5.7559964,-0.0091 -6.5257384,-0.371639 -0.560655,-0.264067 -0.907628,-0.582356 -1.198702,-1.099607 l -0.409649,-0.727967 0.0029,-10.668997 0.0029,-10.668999 0.404296,-0.660224 c 0.246711,-0.402885 0.715446,-0.821361 1.202569,-1.073628 l 0.798275,-0.413402 h 4.9556964 4.955696 l 0.0042,-3.633815 c 0.0037,-3.211835 0.04359,-3.714061 0.343432,-4.324848 0.374599,-0.763068 1.099109,-1.208461 1.96578,-1.208461 h 0.54465 V 9.6687609 5.2916666 H 33.85826 47.244385 l -0.01686,0.3716402 c -0.0093,0.2044014 -0.0055,2.1740949 0.0084,4.3770942 l 0.02526,4.005455 h 0.544651 c 0.771305,0 1.544807,0.415945 1.876424,1.009029 0.234482,0.419367 0.284213,1.14803 0.285255,4.179546 7.08e-4,2.019396 0.05508,3.740687 0.120863,3.82509 0.06866,0.08809 2.211517,0.153459 5.030932,0.153459 4.905375,0 4.9123,5.15e-4 5.714999,0.412933 0.563272,0.289414 0.923871,0.633386 1.205508,1.14992 l 0.401836,0.736985 v 10.592711 10.592705 l -0.409649,0.727967 c -0.291074,0.517251 -0.638048,0.83554 -1.198702,1.099606 -0.769743,0.362545 -0.929438,0.37164 -6.52574,0.37164 -3.15518,0 -5.774061,0.03456 -5.819735,0.07681 -0.04568,0.04224 0.01965,0.952761 0.14518,2.023374 0.462681,3.94624 1.307085,11.288205 1.307085,11.364914 0,0.04352 -7.233047,0.07912 -16.073436,0.07912 -15.191002,0 -16.073143,-0.01587 -16.068105,-0.289053 z M 47.975567,60.65777 c 0,-0.25442 -0.447507,-4.145346 -1.884512,-16.385178 -0.154651,-1.317258 -0.319931,-2.636581 -0.367287,-2.931828 l -0.08611,-0.536814 h -11.770995 -11.771 l -0.09631,0.536814 c -0.05297,0.295247 -0.342725,2.692326 -0.643904,5.326842 -0.301179,2.634516 -0.783869,6.753861 -1.072645,9.154102 -0.288777,2.400239 -0.525047,4.537171 -0.525047,4.748734 v 0.384663 h 14.108904 c 13.467692,0 14.108904,-0.01351 14.108904,-0.297335 z M 24.579789,58.725264 v -0.743281 h 9.286874 9.286873 v 0.743281 0.74328 h -9.286873 -9.286874 z m 0,-4.624855 v -0.74328 h 9.286874 9.286873 v 0.74328 0.74328 h -9.286873 -9.286874 z m 0.03438,-4.583562 0.05492,-0.701987 h 9.197577 9.197576 l 0.05492,0.701987 0.05492,0.701987 h -9.307416 -9.307412 z m 0.0023,-4.551234 0.05261,-0.710951 9.197577,0.0073 9.197577,0.0073 0.05261,0.703599 0.05261,0.7036 h -9.302794 -9.302797 l 0.05261,-0.710954 z m -7.758217,-2.395634 c 0.05224,-5.43561 0.05803,-5.464455 1.195635,-5.96372 0.530532,-0.232833 2.290263,-0.26199 15.812748,-0.26199 13.522485,0 15.282215,0.02915 15.812744,0.26199 1.137608,0.499265 1.143391,0.52811 1.195635,5.96372 l 0.04732,4.923494 2.678905,0.05206 c 1.473399,0.02863 3.495276,0.0033 4.493061,-0.05615 2.858645,-0.170519 2.561392,1.141234 2.561392,-11.303213 0,-5.803135 -0.04992,-10.671474 -0.110939,-10.818533 -0.321744,-0.775444 0.558355,-0.75068 -26.67812,-0.75068 -27.2364764,0 -26.3563764,-0.02477 -26.6781204,0.75068 -0.06102,0.147059 -0.110939,5.01902 -0.110939,10.826583 0,10.38647 0.0059,10.563907 0.360497,10.846643 0.495171,0.394816 1.639857,0.487288 5.8009864,0.468629 l 3.571874,-0.01602 0.04732,-4.923494 z M 55.193463,30.823941 c -1.237631,-0.498373 -1.69217,-1.805998 -0.976702,-2.809792 0.636877,-0.893531 1.67917,-1.154548 2.686517,-0.672774 0.753919,0.360571 1.073534,0.880959 1.073534,1.747897 0,0.846367 -0.490918,1.505905 -1.344237,1.805958 -0.592705,0.208412 -0.765814,0.199837 -1.439112,-0.07129 z M 45.475255,14.954313 V 6.7782304 H 33.866663 22.25807 v 8.1760826 8.176084 h 11.608593 11.608592 z"
       id="path993" />
  </g>
</svg>
