<?xml version="1.0" encoding="UTF-8" standalone="no"?>
<!-- Created with Inkscape (http://www.inkscape.org/) -->

<svg
   width="256"
   height="256"
   viewBox="0 0 67.733331 67.733333"
   version="1.1"
   id="svg5"
   inkscape:version="1.1.2 (0a00cf5339, 2022-02-04)"
   sodipodi:docname="tek.svg"
   xmlns:inkscape="http://www.inkscape.org/namespaces/inkscape"
   xmlns:sodipodi="http://sodipodi.sourceforge.net/DTD/sodipodi-0.dtd"
   xmlns="http://www.w3.org/2000/svg"
   xmlns:svg="http://www.w3.org/2000/svg">
  <sodipodi:namedview
     id="namedview7"
     pagecolor="#ffffff"
     bordercolor="#666666"
     borderopacity="1.0"
     inkscape:pageshadow="2"
     inkscape:pageopacity="0.0"
     inkscape:pagecheckerboard="0"
     inkscape:document-units="px"
     showgrid="false"
     units="px"
     width="1200px"
     inkscape:zoom="0.6836286"
     inkscape:cx="90.692519"
     inkscape:cy="139.69574"
     inkscape:window-width="1366"
     inkscape:window-height="670"
     inkscape:window-x="0"
     inkscape:window-y="28"
     inkscape:window-maximized="1"
     inkscape:current-layer="layer1" />
  <defs
     id="defs2">
    <filter
       inkscape:collect="always"
       style="color-interpolation-filters:sRGB"
       id="filter1558"
       x="-0.06333331"
       y="-0.072000034"
       width="1.1266673"
       height="1.144004">
      <feGaussianBlur
         inkscape:collect="always"
         stdDeviation="1.3427599"
         id="feGaussianBlur1560" />
    </filter>
  </defs>
  <g
     inkscape:label="Layer 1"
     inkscape:groupmode="layer"
     id="layer1">
    <path
       style="fill:#000000;stroke-width:0.79374998;stroke:#000000;stroke-opacity:1;stroke-miterlimit:4;stroke-dasharray:none;filter:url(#filter1558)"
       d="M 16.485731,58.923158 C 14.774503,58.789107 12.372377,58.38518 11.348068,58.059243 9.7452206,57.549209 9.1468046,56.86975 8.6052226,54.944929 c -0.419775,-1.49191 -1.206123,-3.008269 -1.690994,-3.260835 -0.236286,-0.123078 -0.535705,-0.22378 -0.665377,-0.22378 -0.12967,0 -0.326797,-0.219459 -0.438059,-0.487689 -0.193603,-0.466739 -0.519126,-3.704262 -0.519126,-5.163031 v -0.695367 l 0.920565,-0.167154 c 3.043317,-0.552597 8.4869294,-0.810538 14.9867894,-0.710139 6.07823,0.09389 6.756958,0.177477 9.136161,1.125177 2.909319,1.15886 4.197903,1.159897 7.053981,0.0056 2.578838,-1.042142 2.997206,-1.084389 10.837632,-1.09434 4.639838,-0.0058 7.675485,0.05701 9.205645,0.190755 2.502101,0.21869 4.831001,0.537216 4.972899,0.68015 0.160186,0.161354 -0.24861,5.26046 -0.463206,5.777811 -0.150053,0.361747 -0.32508,0.518588 -0.652282,0.584507 -0.816332,0.164456 -1.325875,0.940122 -2.016283,3.069345 -0.916924,2.827805 -1.395275,3.256468 -4.285977,3.840778 -2.231071,0.450977 -5.261679,0.662674 -8.012765,0.559717 -3.581433,-0.134033 -5.521623,-0.477334 -7.069935,-1.250969 -1.011125,-0.505224 -1.533635,-1.329318 -2.287215,-3.607362 -0.625951,-1.892228 -1.116118,-2.630147 -2.219247,-3.340958 -1.078552,-0.694975 -1.605921,-0.771217 -2.428798,-0.351132 -1.547694,0.79011 -2.216822,1.704412 -2.993203,4.089933 -0.214998,0.66061 -0.604283,1.561926 -0.865076,2.002926 -0.398576,0.673987 -0.626801,0.877691 -1.431557,1.277752 -1.097019,0.545351 -2.472674,0.854375 -4.786935,1.075325 -1.507584,0.143934 -4.879204,0.170863 -6.407129,0.05117 z m 7.922247,-1.089031 c 2.798154,-0.455462 4.080109,-1.741733 4.799828,-4.815983 0.8531,-3.64399 0.38513,-5.466748 -1.675301,-6.525338 -1.81676,-0.9334 -3.986999,-1.16727 -10.031422,-1.081007 -4.144877,0.05916 -4.55175,0.08861 -5.489596,0.397417 -1.196636,0.394024 -2.2653624,1.356107 -2.5692594,2.31289 -0.289567,0.911669 -0.374887,2.698483 -0.187734,3.931667 0.595764,3.925619 2.3433364,5.534409 6.4489354,5.936807 1.587546,0.155597 7.432911,0.05054 8.704549,-0.156453 z m 29.121268,-0.06642 c 3.441363,-0.742737 4.968255,-2.919467 4.996792,-7.123399 0.01437,-2.118108 -0.20405,-2.883551 -1.083948,-3.7985 -0.548917,-0.570782 -0.875402,-0.763086 -1.777134,-1.046756 -1.077314,-0.338903 -1.239672,-0.347299 -6.554419,-0.338959 -4.523187,0.0072 -5.65008,0.05107 -6.628065,0.258653 -2.229704,0.473252 -3.770391,1.544257 -4.174125,2.901635 -0.499923,1.680762 0.194151,5.485459 1.31034,7.18289 0.904293,1.375193 2.382533,1.98537 5.294075,2.18525 2.56591,0.176152 7.344627,0.05369 8.616484,-0.220814 z M 60.900231,42.084145 C 60.127861,39.281109 58.241601,35.06506 56.740717,32.787057 55.68925,31.19117 53.709073,29.15636 52.350924,28.27615 c -2.12889,-1.379723 -3.974768,-1.923574 -6.55442,-1.93113 -2.853542,-0.0084 -5.484356,0.671564 -8.817899,2.278951 -1.001885,0.483093 -1.840964,0.878351 -1.86462,0.878351 -0.02365,0 0.04962,-0.350511 0.162844,-0.778915 0.276748,-1.047154 0.263945,-1.815466 -0.03527,-2.116868 -0.291901,-0.294031 -1.067737,-0.214773 -2.375401,0.242665 -0.462711,0.161862 -1.47096,0.464319 -2.240552,0.672125 -1.321918,0.356946 -1.753396,0.389154 -7.806386,0.582689 -6.936194,0.221775 -7.9183,0.334122 -9.519777,1.089011 -2.962001,1.396199 -4.3132784,4.547741 -4.9259524,11.488649 -0.09976,1.130205 -0.229869,1.964758 -0.289122,1.854559 -0.391389,-0.727885 -2.10025,-5.854396 -2.350767,-7.052204 -1.18413,-5.661712 0.157981,-11.256329 3.534908,-14.735341 1.2830164,-1.321801 2.0739514,-1.89505 3.8960854,-2.82378 1.119943,-0.570827 1.401874,-0.792102 1.863282,-1.462408 1.875314,-2.724344 5.162682,-4.614916 9.706114,-5.582007 3.976931,-0.846507 8.237976,-1.0307872 17.260436,-0.746469 8.407756,0.264947 10.852001,0.155767 12.906988,-0.5765342 0.349644,-0.1245966 0.823841,-0.3614728 1.053769,-0.5263916 0.229931,-0.1649188 0.457533,-0.2998524 0.505785,-0.2998524 0.268948,0 -0.10998,1.2984542 -0.58446,2.0027392 -0.205371,0.304838 -0.335229,0.592702 -0.288575,0.639696 0.04666,0.04699 0.814808,-0.130033 1.707012,-0.393393 0.892203,-0.263361 1.684015,-0.440348 1.759581,-0.393304 0.28566,0.177836 0.468723,1.385357 0.461709,3.04552 -0.0097,2.299413 -0.202149,3.407463 -0.997633,5.744499 l -0.669331,1.966414 0.891828,0.980373 c 1.570667,1.72661 2.753151,4.596039 3.355667,8.1429 0.315519,1.857387 0.356679,6.848114 0.07097,8.605159 -0.234145,1.439932 -0.759727,3.664387 -0.90453,3.828298 -0.05791,0.06555 -0.221243,-0.301655 -0.362972,-0.816006 z"
       id="path1093" />
    <path
       style="fill:#ffffff;stroke-width:0.147826;fill-opacity:1"
       d="M 16.485731,58.923158 C 14.774503,58.789107 12.372377,58.38518 11.348068,58.059243 9.7452206,57.549209 9.1468046,56.86975 8.6052226,54.944929 c -0.419775,-1.49191 -1.206123,-3.008269 -1.690994,-3.260835 -0.236286,-0.123078 -0.535705,-0.22378 -0.665377,-0.22378 -0.12967,0 -0.326797,-0.219459 -0.438059,-0.487689 -0.193603,-0.466739 -0.519126,-3.704262 -0.519126,-5.163031 v -0.695367 l 0.920565,-0.167154 c 3.043317,-0.552597 8.4869294,-0.810538 14.9867894,-0.710139 6.07823,0.09389 6.756958,0.177477 9.136161,1.125177 2.909319,1.15886 4.197903,1.159897 7.053981,0.0056 2.578838,-1.042142 2.997206,-1.084389 10.837632,-1.09434 4.639838,-0.0058 7.675485,0.05701 9.205645,0.190755 2.502101,0.21869 4.831001,0.537216 4.972899,0.68015 0.160186,0.161354 -0.24861,5.26046 -0.463206,5.777811 -0.150053,0.361747 -0.32508,0.518588 -0.652282,0.584507 -0.816332,0.164456 -1.325875,0.940122 -2.016283,3.069345 -0.916924,2.827805 -1.395275,3.256468 -4.285977,3.840778 -2.231071,0.450977 -5.261679,0.662674 -8.012765,0.559717 -3.581433,-0.134033 -5.521623,-0.477334 -7.069935,-1.250969 -1.011125,-0.505224 -1.533635,-1.329318 -2.287215,-3.607362 -0.625951,-1.892228 -1.116118,-2.630147 -2.219247,-3.340958 -1.078552,-0.694975 -1.605921,-0.771217 -2.428798,-0.351132 -1.547694,0.79011 -2.216822,1.704412 -2.993203,4.089933 -0.214998,0.66061 -0.604283,1.561926 -0.865076,2.002926 -0.398576,0.673987 -0.626801,0.877691 -1.431557,1.277752 -1.097019,0.545351 -2.472674,0.854375 -4.786935,1.075325 -1.507584,0.143934 -4.879204,0.170863 -6.407129,0.05117 z m 7.922247,-1.089031 c 2.798154,-0.455462 4.080109,-1.741733 4.799828,-4.815983 0.8531,-3.64399 0.38513,-5.466748 -1.675301,-6.525338 -1.81676,-0.9334 -3.986999,-1.16727 -10.031422,-1.081007 -4.144877,0.05916 -4.55175,0.08861 -5.489596,0.397417 -1.196636,0.394024 -2.2653624,1.356107 -2.5692594,2.31289 -0.289567,0.911669 -0.374887,2.698483 -0.187734,3.931667 0.595764,3.925619 2.3433364,5.534409 6.4489354,5.936807 1.587546,0.155597 7.432911,0.05054 8.704549,-0.156453 z m 29.121268,-0.06642 c 3.441363,-0.742737 4.968255,-2.919467 4.996792,-7.123399 0.01437,-2.118108 -0.20405,-2.883551 -1.083948,-3.7985 -0.548917,-0.570782 -0.875402,-0.763086 -1.777134,-1.046756 -1.077314,-0.338903 -1.239672,-0.347299 -6.554419,-0.338959 -4.523187,0.0072 -5.65008,0.05107 -6.628065,0.258653 -2.229704,0.473252 -3.770391,1.544257 -4.174125,2.901635 -0.499923,1.680762 0.194151,5.485459 1.31034,7.18289 0.904293,1.375193 2.382533,1.98537 5.294075,2.18525 2.56591,0.176152 7.344627,0.05369 8.616484,-0.220814 z M 60.900231,42.084145 C 60.127861,39.281109 58.241601,35.06506 56.740717,32.787057 55.68925,31.19117 53.709073,29.15636 52.350924,28.27615 c -2.12889,-1.379723 -3.974768,-1.923574 -6.55442,-1.93113 -2.853542,-0.0084 -5.484356,0.671564 -8.817899,2.278951 -1.001885,0.483093 -1.840964,0.878351 -1.86462,0.878351 -0.02365,0 0.04962,-0.350511 0.162844,-0.778915 0.276748,-1.047154 0.263945,-1.815466 -0.03527,-2.116868 -0.291901,-0.294031 -1.067737,-0.214773 -2.375401,0.242665 -0.462711,0.161862 -1.47096,0.464319 -2.240552,0.672125 -1.321918,0.356946 -1.753396,0.389154 -7.806386,0.582689 -6.936194,0.221775 -7.9183,0.334122 -9.519777,1.089011 -2.962001,1.396199 -4.3132784,4.547741 -4.9259524,11.488649 -0.09976,1.130205 -0.229869,1.964758 -0.289122,1.854559 -0.391389,-0.727885 -2.10025,-5.854396 -2.350767,-7.052204 -1.18413,-5.661712 0.157981,-11.256329 3.534908,-14.735341 1.2830164,-1.321801 2.0739514,-1.89505 3.8960854,-2.82378 1.119943,-0.570827 1.401874,-0.792102 1.863282,-1.462408 1.875314,-2.724344 5.162682,-4.614916 9.706114,-5.582007 3.976931,-0.846507 8.237976,-1.0307872 17.260436,-0.746469 8.407756,0.264947 10.852001,0.155767 12.906988,-0.5765342 0.349644,-0.1245966 0.823841,-0.3614728 1.053769,-0.5263916 0.229931,-0.1649188 0.457533,-0.2998524 0.505785,-0.2998524 0.268948,0 -0.10998,1.2984542 -0.58446,2.0027392 -0.205371,0.304838 -0.335229,0.592702 -0.288575,0.639696 0.04666,0.04699 0.814808,-0.130033 1.707012,-0.393393 0.892203,-0.263361 1.684015,-0.440348 1.759581,-0.393304 0.28566,0.177836 0.468723,1.385357 0.461709,3.04552 -0.0097,2.299413 -0.202149,3.407463 -0.997633,5.744499 l -0.669331,1.966414 0.891828,0.980373 c 1.570667,1.72661 2.753151,4.596039 3.355667,8.1429 0.315519,1.857387 0.356679,6.848114 0.07097,8.605159 -0.234145,1.439932 -0.759727,3.664387 -0.90453,3.828298 -0.05791,0.06555 -0.221243,-0.301655 -0.362972,-0.816006 z"
       id="path1193" />
  </g>
</svg>
