<?xml version="1.0" encoding="UTF-8" standalone="no"?>
<!-- Created with Inkscape (http://www.inkscape.org/) -->

<svg
   width="256"
   height="256"
   viewBox="0 0 67.733331 67.733333"
   version="1.1"
   id="svg5"
   inkscape:version="1.1.2 (0a00cf5339, 2022-02-04)"
   sodipodi:docname="terabox.svg"
   xmlns:inkscape="http://www.inkscape.org/namespaces/inkscape"
   xmlns:sodipodi="http://sodipodi.sourceforge.net/DTD/sodipodi-0.dtd"
   xmlns="http://www.w3.org/2000/svg"
   xmlns:svg="http://www.w3.org/2000/svg">
  <sodipodi:namedview
     id="namedview7"
     pagecolor="#ffffff"
     bordercolor="#666666"
     borderopacity="1.0"
     inkscape:pageshadow="2"
     inkscape:pageopacity="0.0"
     inkscape:pagecheckerboard="0"
     inkscape:document-units="px"
     showgrid="false"
     units="px"
     width="1200px"
     inkscape:zoom="0.825"
     inkscape:cx="223.63636"
     inkscape:cy="198.18182"
     inkscape:window-width="1366"
     inkscape:window-height="670"
     inkscape:window-x="0"
     inkscape:window-y="28"
     inkscape:window-maximized="1"
     inkscape:current-layer="layer1" />
  <defs
     id="defs2" />
  <g
     inkscape:label="Layer 1"
     inkscape:groupmode="layer"
     id="layer1">
    <path
       style="fill:none;stroke:#ededed;stroke-width:4.71243;stroke-linecap:butt;stroke-linejoin:miter;stroke-miterlimit:4;stroke-dasharray:none;stroke-opacity:1"
       d="m 19.440303,25.323288 c 1.585672,-6.985682 7.558508,-11.854573 14.042179,-11.854573 6.452653,0 12.49315,3.432963 14.900803,11.380391 7.142687,1.940809 13.172929,8.167386 11.396159,17.756511 C 56.557517,53.699073 47.068933,55.33084 41.1723,53.643996 39.590623,52.396157 39.074999,52.426599 39.074999,49.805913 l -0.03754,-5.877272 h 3.077882 c 1.743279,0 3.053636,-2.07178 1.932616,-3.419811 l -7.500108,-8.774025 c -2.022984,-2.86988 -3.151819,-3.061404 -5.47146,0 l -7.019646,8.353464 c -1.579552,1.985913 -0.472656,3.70172 1.865211,3.70172 h 2.667611 v 6.64832 c -0.0025,1.869879 -1.647676,2.794325 -3.294401,3.162849 C 14.9417,55.383969 7.6478816,48.642202 7.6478816,38.866261 c 0,-6.599523 6.0611524,-12.535628 11.7924054,-13.542973 z"
       id="path1249"
       sodipodi:nodetypes="cccccccccccccccccc" />
  </g>
</svg>
